<svg fill="#0D9488" viewBox="0 0 28 24" xmlns="http://www.w3.org/2000/svg"><path d="M.41 10.385a13.69 13.69 0 0 1 26.57 0h-1.2a9.69 9.69 0 0 0-5.67 1.73c-.096.07-.196.133-.3.19h-.14a2.856 2.856 0 0 1-.3-.19 10.17 10.17 0 0 0-11.35 0c-.096.07-.196.133-.3.19h-.14a2.856 2.856 0 0 1-.3-.19 9.69 9.69 0 0 0-5.67-1.73H.41zm23.21 6.27a3.37 3.37 0 0 1 2.16-.71h1.61v-3.21h-1.61a6.38 6.38 0 0 0-3.83 1.22 3.64 3.64 0 0 1-4.32 0 6.8 6.8 0 0 0-7.77 0 3.64 3.64 0 0 1-4.32 0 6.38 6.38 0 0 0-3.88-1.22H0v3.21h1.61a3.37 3.37 0 0 1 2.16.71 6.78 6.78 0 0 0 7.76 0 3.39 3.39 0 0 1 2.16-.71 3.35 3.35 0 0 1 2.16.71 6.8 6.8 0 0 0 7.77 0zm0 5.74a3.37 3.37 0 0 1 2.16-.71h1.61v-3.21h-1.61a6.38 6.38 0 0 0-3.83 1.22 3.64 3.64 0 0 1-4.32 0 6.8 6.8 0 0 0-7.77 0 3.64 3.64 0 0 1-4.32 0 6.38 6.38 0 0 0-3.88-1.22H0v3.21h1.61a3.37 3.37 0 0 1 2.16.71 6.78 6.78 0 0 0 7.76 0 3.39 3.39 0 0 1 2.16-.71 3.35 3.35 0 0 1 2.16.71 6.8 6.8 0 0 0 7.77 0z"/></svg>