<?xml version="1.0" standalone="no"?>
<!DOCTYPE svg PUBLIC "-//W3C//DTD SVG 20010904//EN"
 "http://www.w3.org/TR/2001/REC-SVG-20010904/DTD/svg10.dtd">
<svg version="1.0" xmlns="http://www.w3.org/2000/svg"
 width="896.000000pt" height="896.000000pt" viewBox="0 0 896.000000 896.000000"
 preserveAspectRatio="xMidYMid meet">
<metadata>
Created by potrace 1.14, written by Peter Selinger 2001-2017
</metadata>
<g transform="translate(0.000000,896.000000) scale(0.100000,-0.100000)"
fill="#000000" stroke="none">
<path d="M4138 8315 c-2 -2 -43 -6 -93 -9 -49 -4 -106 -9 -125 -11 -78 -9
-136 -17 -155 -19 -59 -9 -122 -19 -140 -22 -11 -2 -33 -7 -50 -10 -66 -12
-228 -48 -290 -64 -22 -6 -51 -13 -65 -16 -47 -10 -415 -135 -425 -145 -5 -5
-15 -9 -22 -9 -8 0 -33 -9 -55 -20 -23 -11 -46 -20 -51 -20 -12 0 -353 -167
-427 -210 -30 -17 -73 -42 -95 -56 -22 -14 -48 -27 -57 -31 -10 -3 -18 -9 -18
-13 0 -4 -14 -13 -31 -20 -17 -7 -36 -18 -42 -24 -22 -21 -138 -96 -147 -96
-6 0 -10 -4 -10 -8 0 -4 -27 -27 -61 -51 -58 -41 -196 -150 -249 -197 -116
-103 -157 -142 -245 -229 -55 -56 -122 -126 -150 -157 -79 -88 -149 -169 -164
-192 -8 -12 -18 -23 -21 -26 -4 -3 -26 -32 -51 -65 -24 -33 -46 -62 -49 -65
-13 -13 -154 -221 -175 -258 -9 -15 -23 -39 -33 -54 -67 -104 -282 -519 -282
-545 0 -4 -7 -21 -15 -36 -30 -59 -167 -446 -181 -512 -1 -5 -9 -36 -17 -67
-8 -32 -12 -58 -9 -59 4 0 149 -2 322 -4 173 -2 342 -6 375 -9 104 -11 218
-27 290 -41 39 -8 82 -17 97 -20 58 -11 76 -15 183 -45 289 -81 592 -220 845
-384 166 -109 177 -115 204 -112 14 1 70 31 123 66 101 66 228 140 298 175 22
11 42 23 43 28 2 4 8 7 14 7 5 0 44 16 86 36 73 35 215 94 237 99 13 3 44 14
70 26 11 5 61 20 110 35 50 14 102 30 118 34 15 5 27 7 27 5 0 -3 11 0 25 5
25 9 49 15 110 27 46 8 60 11 60 13 0 1 15 3 34 6 19 2 46 6 60 9 14 3 44 8
66 11 22 2 54 7 70 9 220 32 649 23 895 -19 19 -3 46 -8 60 -10 14 -2 45 -9
70 -15 25 -5 56 -12 70 -15 147 -27 538 -159 608 -204 12 -8 22 -12 22 -9 0 6
272 -132 280 -142 3 -4 26 -18 53 -31 26 -14 47 -28 47 -32 0 -5 5 -8 10 -8 6
0 44 -23 85 -51 99 -67 114 -69 189 -22 34 20 66 41 71 46 67 56 429 255 495
272 3 0 19 8 36 17 17 10 60 27 95 38 35 12 78 28 94 35 17 7 50 19 75 25 25
7 63 18 85 25 22 8 55 17 74 20 19 3 37 8 41 10 3 2 17 6 31 8 13 3 42 10 64
15 22 6 58 13 80 17 23 3 52 8 65 10 134 28 315 39 642 40 201 0 288 3 288 11
0 6 -6 32 -14 57 -8 26 -12 47 -10 47 3 0 -2 14 -11 30 -9 17 -13 30 -11 30 3
0 1 12 -5 28 -6 15 -12 34 -14 42 -2 8 -10 34 -19 58 -8 23 -15 45 -15 48 1 2
-8 29 -20 59 -12 30 -31 81 -43 113 -19 51 -42 109 -68 167 -5 11 -36 77 -69
147 -34 70 -61 132 -61 138 0 5 -4 10 -10 10 -5 0 -10 4 -10 9 0 22 -228 400
-280 464 -5 7 -44 59 -87 117 -43 58 -87 116 -99 130 -189 222 -304 345 -439
466 -16 14 -50 45 -75 68 -25 22 -66 57 -90 76 -25 19 -47 37 -50 41 -27 34
-385 284 -467 326 -18 9 -33 20 -33 25 0 4 -4 8 -8 8 -5 0 -58 27 -118 61
-121 68 -307 159 -323 159 -6 0 -11 5 -11 12 0 6 -3 9 -6 5 -3 -3 -42 10 -87
30 -133 57 -326 128 -402 147 -5 2 -17 6 -25 9 -20 8 -166 48 -210 58 -19 4
-77 17 -129 28 -52 12 -97 19 -99 16 -3 -3 -10 -1 -16 4 -11 8 -57 18 -131 27
-43 5 -80 12 -80 14 0 0 -25 3 -55 6 -59 5 -115 12 -115 14 0 8 -669 22 -677
15z"/>
<path d="M0 3733 l0 -513 23 -1 c12 0 171 -1 352 -2 182 -2 335 -6 341 -10 7
-4 28 -9 49 -13 58 -9 204 -60 268 -93 31 -17 110 -66 175 -110 108 -73 139
-92 255 -154 123 -67 384 -161 507 -183 14 -2 36 -7 50 -11 37 -9 50 -12 100
-18 92 -12 215 -23 222 -19 3 2 9 -2 11 -8 3 -7 6 -8 6 -3 1 6 20 9 43 7 24
-1 48 -3 53 -3 23 -1 217 11 242 15 16 2 48 7 73 11 84 12 100 15 162 30 172
40 349 105 493 180 128 66 169 89 175 96 3 3 16 12 29 19 14 7 30 17 35 21 6
5 25 20 42 34 18 14 34 25 37 25 3 0 26 13 50 30 77 52 255 121 348 136 19 3
52 8 74 11 54 9 289 9 345 1 102 -16 176 -37 273 -78 81 -35 218 -115 225
-132 2 -5 10 -8 18 -8 8 0 14 -4 14 -8 0 -5 10 -14 23 -21 12 -6 36 -20 52
-31 52 -34 189 -108 220 -120 17 -6 53 -22 80 -34 75 -35 194 -78 251 -91 10
-2 35 -9 54 -15 31 -9 180 -38 285 -56 65 -11 416 -12 486 -2 35 6 71 10 79
10 8 0 33 4 55 9 22 4 54 10 70 13 67 12 94 19 175 42 97 29 220 74 234 86 6
4 18 8 28 8 10 0 18 5 18 12 0 6 3 9 6 5 14 -14 375 193 404 231 3 4 16 13 29
20 90 51 153 84 163 86 7 2 21 6 31 9 23 9 46 16 55 18 4 0 12 4 17 9 6 5 48
16 95 26 68 14 150 17 420 20 184 1 337 3 340 3 4 1 5 1004 1 1021 -1 8 -661
3 -736 -5 -33 -3 -71 -8 -85 -11 -14 -3 -43 -7 -65 -10 -52 -7 -80 -12 -80
-14 0 -2 -9 -4 -20 -5 -31 -4 -264 -74 -283 -85 -19 -11 -94 -43 -103 -44 -26
-4 -279 -148 -304 -172 -8 -9 -15 -12 -15 -9 0 4 -17 -7 -37 -23 -46 -35 -127
-86 -132 -83 -2 2 -7 -1 -10 -6 -10 -14 -226 -108 -238 -104 -2 1 -4 1 -5 0
-2 0 -10 -2 -18 -4 -8 -1 -40 -7 -70 -14 -30 -6 -68 -13 -85 -16 -40 -7 -231
-7 -275 -1 -234 37 -373 91 -562 223 -42 29 -81 53 -87 53 -5 0 -11 4 -13 9
-4 11 -298 164 -298 155 0 -4 -6 -2 -12 4 -12 9 -213 80 -248 87 -8 2 -15 4
-15 5 0 1 -4 3 -55 13 -160 35 -201 42 -330 53 -131 12 -387 6 -472 -12 -13
-2 -39 -6 -58 -9 -19 -3 -46 -7 -60 -10 -14 -3 -34 -7 -45 -9 -166 -33 -339
-94 -505 -176 -107 -53 -159 -81 -174 -93 -6 -5 -30 -21 -52 -35 -23 -15 -68
-45 -100 -66 -119 -79 -299 -155 -404 -171 -24 -4 -47 -8 -50 -10 -23 -14
-286 -22 -340 -10 -14 3 -41 8 -60 11 -155 24 -315 92 -478 203 -45 31 -106
70 -135 88 -28 17 -57 35 -63 40 -22 17 -54 33 -68 33 -8 0 -16 4 -18 8 -3 9
-62 37 -148 72 -30 12 -63 26 -72 31 -10 5 -26 9 -36 9 -10 0 -22 4 -27 9 -10
9 -186 56 -240 65 -16 2 -30 5 -30 6 0 4 -67 14 -190 26 -33 4 -216 7 -407 8
l-348 1 0 -512z"/>
<path d="M0 1895 l0 -514 288 -1 c351 0 387 -2 517 -32 91 -20 285 -104 332
-143 7 -5 18 -15 25 -20 78 -63 317 -198 448 -253 65 -28 254 -92 290 -98 14
-3 39 -9 55 -14 17 -5 48 -12 70 -15 22 -4 49 -8 60 -10 11 -2 36 -6 55 -9
151 -26 525 -26 610 -1 8 2 37 6 63 9 27 3 52 8 57 11 4 3 23 7 41 10 133 18
415 124 594 224 91 50 168 101 173 113 2 4 8 8 14 8 6 0 27 14 48 30 21 17 43
30 49 30 6 0 11 5 11 12 0 6 3 8 6 5 4 -4 19 2 33 12 73 50 285 116 409 125
31 3 59 5 62 6 12 3 181 -2 216 -6 21 -2 54 -6 71 -9 18 -2 58 -11 90 -20 32
-10 63 -18 68 -20 75 -17 310 -152 393 -225 6 -6 12 -8 12 -4 0 4 8 0 18 -8 9
-9 33 -24 52 -33 19 -10 38 -23 42 -29 4 -6 8 -7 8 -3 0 5 13 -1 29 -12 16
-12 32 -21 36 -21 4 0 35 -13 69 -28 107 -50 130 -60 191 -78 33 -10 63 -23
67 -29 4 -5 8 -7 8 -3 0 3 24 0 53 -9 28 -8 62 -16 74 -18 11 -2 31 -6 43 -10
23 -7 33 -9 109 -20 25 -3 48 -8 52 -11 13 -8 177 -17 299 -17 161 -1 301 12
416 37 12 2 37 7 55 10 48 8 254 69 319 95 165 67 483 245 548 308 7 7 19 13
27 13 7 0 15 4 17 8 3 8 134 73 153 76 6 1 15 4 20 8 6 3 26 9 45 14 49 11 49
11 55 14 12 6 93 20 142 25 21 2 178 5 348 5 l310 1 0 512 0 512 -363 0 c-200
1 -366 -3 -368 -7 -3 -5 -9 -6 -13 -3 -5 2 -37 0 -72 -6 -35 -6 -73 -12 -84
-14 -117 -17 -322 -78 -440 -131 -22 -10 -42 -18 -45 -19 -45 -11 -388 -216
-410 -246 -5 -7 -177 -99 -185 -99 -3 0 -21 -7 -41 -15 -40 -16 -133 -43 -176
-50 -16 -3 -43 -8 -60 -11 -18 -4 -100 -7 -183 -7 -259 -1 -434 55 -680 218
-61 40 -131 85 -155 99 -45 26 -266 136 -274 136 -3 0 -17 5 -33 12 -15 6 -30
12 -33 13 -3 0 -41 13 -86 27 -44 15 -102 32 -130 38 -27 7 -58 14 -69 16
-151 35 -269 47 -465 47 -153 1 -261 -7 -347 -24 -28 -5 -64 -12 -80 -13 -15
-2 -28 -5 -28 -6 0 -1 -7 -3 -16 -5 -95 -18 -326 -90 -339 -104 -3 -3 -12 -7
-20 -9 -48 -10 -320 -154 -328 -174 -2 -4 -7 -6 -12 -3 -5 3 -14 -1 -22 -8
-22 -22 -166 -117 -178 -117 -5 0 -10 -5 -10 -10 0 -6 -3 -9 -7 -8 -5 0 -30
-10 -58 -23 -27 -13 -52 -24 -55 -24 -3 -1 -14 -5 -25 -9 -51 -20 -74 -27
-135 -41 -100 -25 -115 -26 -256 -30 -136 -3 -258 14 -374 50 -67 22 -244 104
-248 116 -2 5 -9 9 -16 9 -7 0 -21 8 -32 18 -22 19 -112 82 -119 82 -2 0 -30
17 -62 38 -113 74 -394 202 -443 202 -11 0 -21 4 -24 9 -3 4 -34 14 -68 21
-35 7 -67 14 -73 16 -5 1 -35 8 -65 14 -53 11 -82 15 -165 26 -22 3 -210 7
-417 9 l-378 3 0 -513z"/>
</g>
</svg>
