<svg xmlns="http://www.w3.org/2000/svg" viewBox="0 0 14.85 14.85" xmlns:v="https://vecta.io/nano"><circle cx="7.42" cy="7.43" r="7.25" fill="#fff" stroke="#754c29" stroke-width=".35"/><path d="M10.5.05l1.3.72-.07.1.09.09-.13.04-.03.02.08.08-.13.05-.14.22.07.08-.04.11.02.08-.14.42-.07-.03-.18.36-.07-.03c.44 1.02.46 2.1-.08 3.17-.2.38-.44.67-.72.88l-2.08 4.02s-.1.48-.19.7c-.14.32-.23.67-.42.96-.24.36-.87.95-.87.95l-.62-.2-.24-.43-.23.22-.33-.02-.55-.25-.07-.6-.79.05-.51-.41s.11-.97.25-1.43c.11-.37.21-.76.44-1.07.1-.13.38-.3.38-.3l.03-.02 2.09-4.05c0-.34.1-.72.3-1.09.73-1.29 1.47-1.52 2.69-1.91l.18-.34-.1-.06.33-.29V.8l.02-.1.14-.02.07-.13-.04-.09.1-.03.02-.03-.05-.14.14-.02.02-.04-.03-.04h.06l.07-.1h0z" fill="#9fddf9"/><path d="M9.63 1.13l.33-.29 1.57.82-.14.42-.08-.04-1.58-.85-.1-.06z" fill="#52b095"/><path d="M7.9 7.94l2.76.97 1.82-.71 1.29 1.45a6.75 6.75 0 0 1-6.34 4.49A6.75 6.75 0 0 1 .7 7.43a6.74 6.74 0 0 1 .38-2.23l2.47.87L5.18 6l1.26 1.91 1.46.05z" fill="#00aeef"/></svg>